<svg width="16" height="16" viewBox="0 0 16 16" fill="none" xmlns="http://www.w3.org/2000/svg">
  <path d="M4.16572 10.6845L0.0707188 8.21705L0.280719 6.95705L5.19472 4.48955L4.97422 5.81255L1.38322 7.59755L1.37272 7.68155L4.36522 9.48755L4.16572 10.6845ZM6.66062 13.026C5.97812 13.026 5.60012 12.564 4.97012 11.745L4.47662 11.1045L5.37962 10.443L6.61862 11.955L6.76562 11.913L7.66862 6.43205H5.90462L6.08312 5.38205H7.84712L7.99412 4.46855C8.13062 3.63905 8.68712 3.03005 9.72662 3.03005H11.5851L11.4066 4.08005H9.38012L9.17012 5.38205H11.1966L11.0181 6.43205H8.99162L8.14112 11.535C7.97312 12.522 7.46912 13.026 6.66062 13.026ZM10.8145 10.6845L11.035 9.36155L14.626 7.57655L14.6365 7.49255L11.644 5.68655L11.8435 4.48955L15.9385 6.95705L15.7285 8.21705L10.8145 10.6845Z" fill="#000"/>
</svg>
